<svg width="110" height="19" viewBox="0 0 110 19" fill="none" xmlns="http://www.w3.org/2000/svg">
<path d="M8.98405 15.432C9.96005 15.432 10.8 15.272 11.504 14.952C12.208 14.616 12.944 14.088 13.712 13.368L15.536 15.24C13.76 17.208 11.6 18.192 9.05605 18.192C6.52805 18.192 4.42405 17.376 2.74405 15.744C1.08005 14.112 0.248047 12.048 0.248047 9.55204C0.248047 7.05604 1.09605 4.97604 2.79205 3.31204C4.50405 1.64804 6.65605 0.81604 9.24805 0.81604C11.856 0.81604 14.032 1.77604 15.776 3.69604L13.976 5.66404C13.176 4.89604 12.416 4.36004 11.696 4.05604C10.992 3.75204 10.16 3.60004 9.20005 3.60004C7.50405 3.60004 6.08005 4.15204 4.92805 5.25604C3.77605 6.34404 3.20005 7.74404 3.20005 9.45604C3.20005 11.152 3.76805 12.576 4.90405 13.728C6.05605 14.864 7.41605 15.432 8.98405 15.432Z" fill="#332F2F"/>
<path d="M21.3759 14.184L19.6959 18H16.6719L24.0639 1.22404H27.0879L34.4799 18H31.4559L29.7759 14.184H21.3759ZM28.6239 11.568L25.5759 4.65604L22.5279 11.568H28.6239Z" fill="#332F2F"/>
<path d="M50.2044 6.67204C50.2044 9.44004 48.9964 11.184 46.5804 11.904L50.9724 18H47.3724L43.3644 12.36H39.6444V18H36.8124V1.22404H43.0524C45.6124 1.22404 47.4444 1.65604 48.5484 2.52004C49.6524 3.38404 50.2044 4.76804 50.2044 6.67204ZM43.1724 9.79204C44.7724 9.79204 45.8604 9.54404 46.4364 9.04804C47.0124 8.55204 47.3004 7.76004 47.3004 6.67204C47.3004 5.56804 47.0044 4.81604 46.4124 4.41604C45.8204 4.00004 44.7644 3.79204 43.2444 3.79204H39.6444V9.79204H43.1724Z" fill="#332F2F"/>
<path d="M66.0574 1.22404V3.88804H57.1054V8.32804H65.1454V10.848H57.1054V15.336H66.3454V18H54.2734V1.22404H66.0574Z" fill="#332F2F"/>
<path d="M72.8085 18H69.9765V1.22404H74.3925L79.4565 11.76L84.5205 1.22404H88.9125V18H86.0805V4.89604L80.2245 16.536H78.6405L72.8085 4.89604V18Z" fill="#332F2F"/>
<path d="M95.954 14.184L94.274 18H91.25L98.642 1.22404H101.666L109.058 18H106.034L104.354 14.184H95.954ZM103.202 11.568L100.154 4.65604L97.106 11.568H103.202Z" fill="#332F2F"/>
</svg>
